<?xml version="1.0" encoding="utf-8"?>
<!-- Generator: Adobe Illustrator 21.0.0, SVG Export Plug-In . SVG Version: 6.00 Build 0)  -->
<svg version="1.1" id="Layer_1" xmlns="http://www.w3.org/2000/svg" xmlns:xlink="http://www.w3.org/1999/xlink" x="0px" y="0px"
	 viewBox="0 0 299 199.7" style="enable-background:new 0 0 299 199.7;" xml:space="preserve">
<style type="text/css">
	.st0{fill:#313131;}
</style>
<title>Email</title>
<g>
	<path class="st0" d="M172.2,85.3L290.4,9.4c-5.8-6-13.8-9.4-22.1-9.4H30.7C22.4,0,14.4,3.4,8.6,9.4l118.2,75.9
		C140.6,94.2,158.4,94.2,172.2,85.3z"/>
	<path class="st0" d="M295.5,23.8l-123.3,78.5c-13.9,8.9-31.6,8.9-45.5,0L2.8,22.3C0.2,28.1,0,31.4,0,39.7V169
		c0,17,13.7,30.7,30.7,30.7h237.6c17,0,30.7-13.7,30.7-30.7l0,0V39.7C299,34.3,298.2,29.4,295.5,23.8z"/>
</g>
</svg>
