<?xml version="1.0" encoding="utf-8"?>
<!-- Generator: Adobe Illustrator 17.0.0, SVG Export Plug-In . SVG Version: 6.00 Build 0)  -->
<!DOCTYPE svg PUBLIC "-//W3C//DTD SVG 1.1//EN" "http://www.w3.org/Graphics/SVG/1.1/DTD/svg11.dtd">
<svg version="1.1" id="Default" xmlns="http://www.w3.org/2000/svg" xmlns:xlink="http://www.w3.org/1999/xlink" x="0px" y="0px"
	 width="300px" height="178.32px" viewBox="0 0 300 178.32" enable-background="new 0 0 300 178.32" xml:space="preserve">
<g>
	
		<line fill="none" stroke="#7C1F5E" stroke-width="5" stroke-linecap="round" stroke-linejoin="round" x1="106.927" y1="105.976" x2="191.808" y2="105.976"/>
	
		<circle fill="none" stroke="#7C1F5E" stroke-width="5" stroke-linecap="round" stroke-linejoin="round" cx="89.951" cy="105.976" r="8.488"/>
	
		<line fill="none" stroke="#7C1F5E" stroke-width="5" stroke-linecap="round" stroke-linejoin="round" x1="106.927" y1="38.071" x2="191.808" y2="38.071"/>
	
		<circle fill="none" stroke="#7C1F5E" stroke-width="5" stroke-linecap="round" stroke-linejoin="round" cx="89.951" cy="38.071" r="8.488"/>
	<path fill="none" stroke="#7C1F5E" stroke-width="5" stroke-linecap="round" stroke-linejoin="round" d="M89.951,146.719
		c0,3.395,0,6.791,0,10.186c0,9.376,7.601,16.976,16.976,16.976c45.27,0,90.54,0,135.81,0c9.376,0,16.976-7.601,16.976-16.976
		c0-9.855,0-19.711,0-29.566c8.395-6.211,16.789-12.422,25.184-18.633c1.834-1.357,1.834-4.102,0-5.459
		c-8.395-6.211-16.789-12.422-25.184-18.633c0-9.855,0-19.711,0-29.566c0-9.376-7.601-16.976-16.976-16.976
		c-2.857,0-5.714,0-8.571,0"/>
	<path fill="none" stroke="#7C1F5E" stroke-width="5" stroke-linecap="round" stroke-linejoin="round" d="M32.429,74.753
		c8.395,6.211,16.789,12.422,25.184,18.633c0,9.855,0,19.711,0,29.566c0,9.376,7.6,16.976,16.976,16.976c45.27,0,90.54,0,135.81,0
		c9.376,0,16.976-7.601,16.976-16.976c0-33.953,0-67.905,0-101.858c0-9.376-7.601-16.976-16.976-16.976c-45.27,0-90.54,0-135.81,0
		c-9.376,0-16.976,7.601-16.976,16.976c0,9.855,0,19.711,0,29.566c-8.395,6.211-16.789,12.422-25.184,18.633
		C30.595,70.652,30.595,73.396,32.429,74.753z"/>
	
		<line fill="none" stroke="#7C1F5E" stroke-width="5" stroke-linecap="round" stroke-linejoin="round" x1="106.927" y1="72.024" x2="191.808" y2="72.024"/>
	
		<circle fill="none" stroke="#7C1F5E" stroke-width="5" stroke-linecap="round" stroke-linejoin="round" cx="89.951" cy="72.024" r="8.488"/>
	<path fill="none" stroke="#7C1F5E" stroke-width="5" stroke-linecap="round" stroke-linejoin="round" d="M38.48,56.37
		c-11.496-5.454-24.753,2.93-24.753,15.654S26.984,93.132,38.48,87.677"/>
</g>
</svg>
