<?xml version="1.0" encoding="utf-8"?>
<!-- Generator: Adobe Illustrator 17.0.0, SVG Export Plug-In . SVG Version: 6.00 Build 0)  -->
<!DOCTYPE svg PUBLIC "-//W3C//DTD SVG 1.1//EN" "http://www.w3.org/Graphics/SVG/1.1/DTD/svg11.dtd">
<svg version="1.1" id="Logo" xmlns="http://www.w3.org/2000/svg" xmlns:xlink="http://www.w3.org/1999/xlink" x="0px" y="0px"
	 width="612.243px" height="612.122px" viewBox="90 0 612.243 612.122" enable-background="new 90 0 612.243 612.122"
	 xml:space="preserve">
<g>
	<path fill="#313131" d="M396,55.15c81.754,0,91.351,0.364,123.663,1.822c29.883,1.336,46.04,6.317,56.851,10.568
		c14.334,5.588,24.538,12.148,35.228,22.838s17.371,20.894,22.838,35.228c4.13,10.811,9.232,26.968,10.568,56.851
		c1.458,32.313,1.822,41.91,1.822,123.663s-0.364,91.351-1.822,123.663c-1.336,29.883-6.317,46.04-10.568,56.851
		c-5.588,14.334-12.148,24.538-22.838,35.228c-10.69,10.69-20.894,17.371-35.228,22.838c-10.811,4.13-26.968,9.232-56.851,10.568
		c-32.313,1.458-41.909,1.822-123.663,1.822s-91.351-0.364-123.663-1.822c-29.883-1.336-46.04-6.317-56.851-10.568
		c-14.334-5.588-24.538-12.148-35.228-22.838c-10.69-10.69-17.371-20.894-22.838-35.228c-4.13-10.811-9.232-26.968-10.568-56.851
		c-1.458-32.313-1.822-41.91-1.822-123.663s0.364-91.351,1.822-123.663c1.336-29.883,6.317-46.04,10.568-56.851
		c5.588-14.334,12.148-24.538,22.838-35.228c10.69-10.69,20.894-17.371,35.228-22.838c10.811-4.13,26.968-9.232,56.851-10.568
		C304.649,55.393,314.368,55.15,396,55.15 M396,0c-83.09,0-93.537,0.364-126.214,1.822C237.23,3.28,215,8.503,195.563,16.035
		c-20.165,7.775-37.172,18.343-54.179,35.35s-27.454,34.135-35.35,54.179C98.503,125,93.28,147.23,91.822,179.907
		C90.364,212.463,90,222.91,90,306s0.364,93.537,1.822,126.214c1.458,32.556,6.681,54.786,14.213,74.344
		c7.775,20.165,18.343,37.172,35.35,54.179c17.007,17.007,34.135,27.454,54.179,35.35c19.436,7.532,41.667,12.755,74.344,14.213
		s43.003,1.822,126.214,1.822s93.537-0.364,126.214-1.822c32.556-1.458,54.786-6.681,74.344-14.213
		c20.165-7.775,37.172-18.343,54.179-35.35c17.007-17.007,27.454-34.135,35.35-54.179c7.532-19.436,12.755-41.667,14.213-74.344
		c1.458-32.677,1.822-43.003,1.822-126.214s-0.364-93.537-1.822-126.214c-1.458-32.556-6.681-54.786-14.213-74.344
		c-7.775-20.165-18.343-37.172-35.35-54.179c-17.007-17.007-34.135-27.454-54.179-35.35c-19.436-7.532-41.667-12.755-74.344-14.213
		C489.537,0.364,479.09,0,396,0L396,0z"/>
	<path fill="#313131" d="M396,148.931c-86.734,0-157.191,70.335-157.191,157.191S309.144,463.312,396,463.312
		s157.191-70.335,157.191-157.191S482.856,148.931,396,148.931z M396,408.04c-56.365,0-102.04-45.675-102.04-102.04
		S339.635,203.96,396,203.96S498.04,249.635,498.04,306S452.365,408.04,396,408.04z"/>
	<circle fill="#313131" cx="559.386" cy="142.614" r="36.686"/>
</g>
</svg>
