<?xml version="1.0" encoding="UTF-8"?>
<svg width="196px" height="65px" viewBox="0 0 196 65" version="1.1" xmlns="http://www.w3.org/2000/svg" xmlns:xlink="http://www.w3.org/1999/xlink">
    <!-- Generator: sketchtool 41.2 (35397) - http://www.bohemiancoding.com/sketch -->
    <title>12B4B539-78A7-42A2-A85F-AF958D9C54FF</title>
    <desc>Created with sketchtool.</desc>
    <defs></defs>
    <g id="Site---Master" stroke="none" stroke-width="1" fill="none" fill-rule="evenodd">
        <g id="Site---Home" transform="translate(-114.000000, -34.000000)" fill="#FFFFFF">
            <g id="Logo" transform="translate(114.000000, 34.000000)">
                <polygon id="Fill-1" points="26.9781057 0.208012341 21.9443572 18.6026961 42.1662566 15.5000973 47.5014013 50.349415 57.1405333 52.9768743 68.4129987 11.4947336"></polygon>
                <polygon id="Fill-2" points="21.3843396 20.7129322 0 23.9870749 6.19618868 64.5220221 46.7275094 58.3186757 45.3937233 49.7889973 40.4887925 17.7837285"></polygon>
                <g id="Group-20" transform="translate(77.000000, 22.138839)">
                    <path d="M7.41867925,10.8509553 C8.6661761,10.8509553 9.52722013,10.5492109 10.0862516,9.94633915 C10.6458994,9.34346743 10.9035346,8.52462323 10.9035346,7.44784621 C10.9035346,6.9739409 10.8172453,6.54323009 10.6884277,6.15571378 C10.5596101,5.76819746 10.3445031,5.42325857 10.0431069,5.16470867 C9.74171069,4.90615878 9.39778616,4.69080337 8.96757233,4.51864246 C8.53735849,4.38967604 8.02085535,4.30328705 7.41867925,4.30328705 L4.92306918,4.30328705 L4.92306918,10.8077608 L7.41867925,10.8077608 L7.41867925,10.8509553 L7.41867925,10.8509553 Z M7.41867925,0.813789012 C8.88128302,0.813789012 10.0862516,0.985949923 11.1192579,1.33088881 C12.1516478,1.67521063 13.0126918,2.14911594 13.6580126,2.75260472 C14.346478,3.35547644 14.8198365,4.04473715 15.1206164,4.86358135 C15.4220126,5.68180847 15.5939748,6.54384716 15.5939748,7.4910407 C15.5939748,8.52462323 15.4220126,9.47243384 15.1206164,10.291278 C14.7766918,11.1526997 14.3033333,11.8851549 13.6148679,12.4880266 C12.9264025,13.0908983 12.0659748,13.5648036 11.0329686,13.9097425 C10.0005786,14.2540643 8.75246541,14.4268423 7.37553459,14.4268423 L4.87992453,14.4268423 L4.87992453,21.2762549 L0.146955975,21.2762549 L0.146955975,0.813789012 L7.41867925,0.813789012 L7.41867925,0.813789012 Z" id="Fill-3"></path>
                    <path d="M21.4456226,8.95533405 C21.8758365,8.17968435 22.3923396,7.53361813 22.9945157,7.10290732 C23.5966918,6.67219651 24.2420126,6.41364661 25.0167673,6.41364661 C25.6620881,6.41364661 26.2217358,6.58580752 26.608805,6.88755192 L26.3074088,10.1185001 C26.2642642,10.3338555 26.1785912,10.4628219 26.0923019,10.5492109 C26.0060126,10.6355999 25.8340503,10.6781773 25.6620881,10.6781773 L25.3606918,10.6781773 C25.2318742,10.6781773 25.1024403,10.6781773 24.9736226,10.6349828 C24.844805,10.6349828 24.7153711,10.5917883 24.5865535,10.5917883 L24.1994843,10.5917883 C23.5541635,10.5917883 23.0376604,10.7639492 22.6937358,11.1088881 C22.3066667,11.4532099 22.0052704,11.9271152 21.7470189,12.530604 L21.7470189,21.4046042 L17.4011195,21.4046042 L17.4011195,6.71539101 L19.9830189,6.71539101 C20.1981258,6.71539101 20.3700881,6.71539101 20.5426667,6.7585855 C20.6714843,6.80177999 20.8009182,6.84497449 20.8865912,6.93074641 C20.9728805,7.0171354 21.0585535,7.10290732 21.1016981,7.2324908 C21.1448428,7.36145722 21.1879874,7.5342352 21.2305157,7.70639611 L21.4456226,8.95533405 Z" id="Fill-5"></path>
                    <path d="M34.5689937,18.3032396 C35.5588553,18.3032396 36.2898491,17.9589178 36.7632075,17.2264626 C37.236566,16.5372019 37.4948176,15.4604248 37.4948176,13.9955144 C37.4948176,12.530604 37.236566,11.4970215 36.7632075,10.7645663 C36.2898491,10.0753056 35.558239,9.68778925 34.5689937,9.68778925 C33.5366038,9.68778925 32.7618491,10.0321111 32.2884906,10.7645663 C31.8151321,11.453827 31.5568805,12.530604 31.5568805,13.9955144 C31.5568805,15.4598078 31.8151321,16.5372019 32.2884906,17.2264626 C32.7618491,17.9583007 33.5359874,18.3032396 34.5689937,18.3032396 M34.5689937,6.5000356 C35.687673,6.5000356 36.6775346,6.67219651 37.5811069,7.0171354 C38.4846792,7.36145722 39.259434,7.87855702 39.9047547,8.52462323 C40.5500755,9.17068945 41.0665786,9.94633915 41.4105031,10.8935327 C41.7544277,11.7981488 41.9701509,12.8749258 41.9701509,13.9948974 C41.9701509,15.1580634 41.7981887,16.1916459 41.4105031,17.1394565 C41.0665786,18.0872671 40.5500755,18.8622998 39.9047547,19.508366 C39.259434,20.1544322 38.4846792,20.671532 37.5811069,21.0158538 C36.6775346,21.3601756 35.6451447,21.5329536 34.5689937,21.5329536 C33.4503145,21.5329536 32.4179245,21.3607927 31.5143522,21.0158538 C30.6107799,20.671532 29.7934969,20.1544322 29.1481761,19.508366 C28.5028553,18.8622998 27.9863522,18.0434556 27.599283,17.1394565 C27.2553585,16.1916459 27.0396352,15.1580634 27.0396352,13.9948974 C27.0396352,12.8317313 27.2115975,11.7981488 27.599283,10.8935327 C27.9432075,9.98891658 28.4597107,9.17068945 29.1481761,8.52462323 C29.7934969,7.87855702 30.6107799,7.36145722 31.5143522,7.0171354 C32.4173082,6.67219651 33.4503145,6.5000356 34.5689937,6.5000356" id="Fill-7"></path>
                    <path d="M54.920327,10.1616946 C54.7915094,10.3338555 54.6620755,10.4634389 54.5332579,10.5492109 C54.4044403,10.6355999 54.2318616,10.6781773 54.0167547,10.6781773 C53.8016478,10.6781773 53.5865409,10.6349828 53.4145786,10.5060164 C53.2426164,10.4196274 53.0275094,10.290661 52.8124025,10.1616946 C52.5972956,10.0327281 52.339044,9.90314465 52.0376478,9.81737273 C51.7362516,9.73098374 51.392327,9.64521182 50.9621132,9.64521182 C50.4456101,9.64521182 49.9722516,9.73160081 49.5851824,9.94695621 C49.1981132,10.1623116 48.8535723,10.4208615 48.6384654,10.8083778 C48.3802138,11.1526997 48.2082516,11.626605 48.0788176,12.1437048 C47.95,12.6608046 47.9068553,13.2636763 47.9068553,13.952937 C47.9068553,15.3314584 48.1651069,16.4082354 48.7241384,17.1838851 C49.2837862,17.9163403 50.0147799,18.3038567 50.9614969,18.3038567 C51.478,18.3038567 51.8650692,18.2606622 52.1664654,18.1316957 C52.4678616,18.0027293 52.7261132,17.8731458 52.8980755,17.7009849 C53.1131824,17.528824 53.2851447,17.3992405 53.4577233,17.2702741 C53.6303019,17.1413077 53.8447925,17.0549187 54.103044,17.0549187 C54.4469686,17.0549187 54.7052201,17.1838851 54.8777987,17.442435 L56.1252956,18.9931174 C55.6950818,19.5102172 55.2217233,19.940928 54.7052201,20.2420553 C54.188717,20.5863771 53.7153585,20.8023496 53.1994717,21.017705 C52.6829686,21.1898659 52.1670818,21.3194494 51.6505786,21.4052213 C51.1340755,21.4916103 50.6181887,21.4916103 50.1016855,21.4916103 C49.1981132,21.4916103 48.3808302,21.3194494 47.5629308,20.9745105 C46.7456478,20.6301887 46.0571824,20.1562834 45.4118616,19.5096001 C44.8096855,18.8635339 44.2931824,18.0878842 43.9486415,17.1406906 C43.604717,16.19288 43.3889937,15.116103 43.3889937,13.9097425 C43.3889937,12.87616 43.560956,11.8851549 43.8623522,10.9805387 C44.1637484,10.0759226 44.6371069,9.2576955 45.239283,8.61162929 C45.8414591,7.92236858 46.6162138,7.40526878 47.5197862,7.01775246 C48.4233585,6.63023615 49.4557484,6.45745817 50.660717,6.45745817 C51.8225409,6.45745817 52.8117862,6.62961908 53.6728302,7.01775246 C54.5338742,7.40588584 55.3080126,7.92236858 55.996478,8.61162929 L54.920327,10.1616946 Z" id="Fill-9"></path>
                    <path d="M66.7099119,12.2720541 C66.7099119,11.9277323 66.6667673,11.5827934 66.5810943,11.2384716 C66.494805,10.8941498 66.3659874,10.6355999 66.1508805,10.37705 C65.9357736,10.1185001 65.677522,9.90314465 65.3761258,9.73098374 C65.0322013,9.55882283 64.6445157,9.47243384 64.1711572,9.47243384 C63.3538742,9.47243384 62.7079371,9.73098374 62.235195,10.204889 C61.7618365,10.6787944 61.4604403,11.3680551 61.288478,12.2726712 L66.7099119,12.2726712 L66.7099119,12.2720541 Z M61.2021887,14.8137415 C61.3310063,16.0201021 61.7186918,16.9247182 62.3208679,17.4843954 C62.923044,18.0440726 63.6977987,18.3026225 64.6445157,18.3026225 C65.1610189,18.3026225 65.5912327,18.259428 65.9351572,18.1304616 C66.3222264,18.0014952 66.6236226,17.8719117 66.9250189,17.7429453 C67.2264151,17.6139789 67.4846667,17.4412009 67.6997736,17.355429 C67.9580252,17.2264626 68.1731321,17.1832681 68.4313836,17.1832681 C68.7753082,17.1832681 69.0335597,17.3122345 69.2061384,17.5707844 L70.4536352,19.1214667 C70.0234214,19.6385665 69.5069182,20.0692773 68.9904151,20.3704047 C68.4739119,20.7147265 67.9148805,20.9306989 67.3983774,21.1460543 C66.8387296,21.3182153 66.3228428,21.4477987 65.763195,21.5335707 C65.2035472,21.6193426 64.6876604,21.6199597 64.2143019,21.6199597 C63.1819119,21.6199597 62.235195,21.4477987 61.3316226,21.1028599 C60.4280503,20.758538 59.6532956,20.2846327 58.9654465,19.6379494 C58.2775975,18.9912662 57.760478,18.1736561 57.3734088,17.182651 C56.9863396,16.1916459 56.7712327,15.0716744 56.7712327,13.7795419 C56.7712327,12.7885368 56.943195,11.8839207 57.2877358,11.0224991 C57.6316604,10.1610775 58.1050189,9.38542779 58.7078113,8.73936158 C59.3106038,8.09329536 60.0847421,7.57619556 60.9883145,7.18867925 C61.8918868,6.80116293 62.8817484,6.62838495 64.0004277,6.62838495 C64.9471447,6.62838495 65.850717,6.75735137 66.668,7.05909576 C67.485283,7.36084016 68.1737484,7.79155097 68.7333962,8.3512282 C69.293044,8.91152249 69.7657862,9.64336063 70.0671824,10.4622048 C70.4111069,11.2804319 70.5405409,12.2282426 70.5405409,13.3050196 C70.5405409,13.6493414 70.5405409,13.9078913 70.4973962,14.1232467 C70.4542516,14.3386021 70.4111069,14.510763 70.325434,14.597152 C70.2391447,14.7261184 70.1534717,14.8125074 70.0240377,14.8557019 C69.8952201,14.8988964 69.7226415,14.9420909 69.5506792,14.9420909 L61.2021887,14.9420909 L61.2021887,14.8137415 Z" id="Fill-11"></path>
                    <path d="M82.0274969,9.90314465 C81.8986792,10.0753056 81.8123899,10.204889 81.6835723,10.290661 C81.5547547,10.37705 81.3821761,10.4196274 81.2102138,10.4196274 C80.9951069,10.4196274 80.78,10.3764329 80.6080377,10.290661 C80.3929308,10.204272 80.1778239,10.1185001 79.9195723,9.98891658 C79.6613208,9.90252759 79.4030692,9.77356117 79.1022893,9.68717218 C78.8008931,9.6007832 78.4569686,9.55820577 78.0698994,9.55820577 C77.5102516,9.55820577 77.0800377,9.64459475 76.7792579,9.85995016 C76.478478,10.0753056 76.349044,10.37705 76.349044,10.7213718 C76.349044,10.9799217 76.4353333,11.2384716 76.6504403,11.4106325 C76.8224025,11.5827934 77.0806541,11.7549543 77.425195,11.8845378 C77.7265912,12.0135042 78.1136604,12.1430877 78.5007296,12.2720541 C78.8877987,12.4010205 79.3180126,12.530604 79.7482264,12.6595704 C80.1784403,12.7885368 80.5655094,13.0038923 80.9957233,13.1766702 C81.3827925,13.3920256 81.770478,13.607381 82.0712579,13.9091254 C82.3726541,14.2108698 82.6309057,14.5551916 82.8460126,14.9859025 C83.0179748,15.4166133 83.1474088,15.9337131 83.1474088,16.4933903 C83.1474088,17.2258455 83.0185912,17.8719117 82.7603396,18.4747834 C82.5020881,19.0776552 82.1150189,19.594755 81.5985157,20.0686603 C81.0820126,20.4993711 80.4366918,20.84431 79.6625535,21.1022428 C78.8884151,21.3601756 78.0273711,21.4465646 77.0381258,21.4465646 C76.5216226,21.4465646 76.0482642,21.4033701 75.5323774,21.3175982 C75.0164906,21.2318263 74.5425157,21.1022428 74.1123019,20.9300819 C73.6820881,20.757921 73.2087296,20.5857601 72.8216604,20.3697876 C72.4345912,20.1538151 72.0900503,19.8958823 71.7892704,19.6373324 L72.8216604,18.0434556 C72.950478,17.8712946 73.0799119,17.6991337 73.2518742,17.6127447 C73.4238365,17.5263558 73.6389434,17.4405838 73.9403396,17.4405838 C74.1985912,17.4405838 74.4136981,17.4837783 74.628805,17.6127447 C74.8439119,17.7417112 75.0590189,17.8281002 75.2741258,17.9570666 C75.4892327,18.086033 75.7906289,18.2156165 76.0914088,18.3445829 C76.392805,18.4735493 76.8230189,18.5167438 77.2963774,18.5167438 C77.6403019,18.5167438 77.8985535,18.4735493 78.156805,18.4303548 C78.3719119,18.3439658 78.5870189,18.2581939 78.7164528,18.1286104 C78.8452704,17.999644 78.9747044,17.8700605 79.0178491,17.7410941 C79.1041384,17.6121277 79.1041384,17.4393497 79.1041384,17.2671888 C79.1041384,16.9654444 79.0178491,16.750089 78.8027421,16.5347336 C78.5876352,16.3625727 78.3293836,16.1904118 78.0279874,16.0608283 C77.7265912,15.9312448 77.339522,15.8022784 76.9524528,15.673312 C76.5653836,15.5443456 76.1351698,15.4147621 75.704956,15.2857957 C75.2747421,15.1568292 74.887673,14.9414738 74.4574591,14.7255014 C74.0703899,14.510146 73.6827044,14.2515961 73.3819245,13.9072742 C73.0811447,13.5629524 72.8222767,13.174819 72.6071698,12.7009137 C72.3920629,12.2270084 72.3057736,11.6673312 72.3057736,10.9780705 C72.3057736,10.3751988 72.4345912,9.77170998 72.6496981,9.21203275 C72.9079497,8.65173846 73.2518742,8.17845022 73.7252327,7.74712234 C74.1985912,7.31641153 74.8007673,6.97147265 75.5323774,6.75611724 C76.2639874,6.54076184 77.0812704,6.36860093 78.0711321,6.36860093 C78.5876352,6.36860093 79.103522,6.41179542 79.5768805,6.49756734 C80.050239,6.58395633 80.5235975,6.71292275 80.9538113,6.88508366 C81.3840252,7.05724457 81.7710943,7.27259998 82.1156352,7.48795538 C82.4601761,7.70331079 82.8041006,7.96186069 83.0623522,8.22041059 L82.0274969,9.90314465 Z" id="Fill-13"></path>
                    <path d="M94.5912201,9.90314465 C94.4624025,10.0753056 94.3761132,10.204889 94.2472956,10.290661 C94.118478,10.37705 93.9458994,10.4196274 93.7739371,10.4196274 C93.5588302,10.4196274 93.3437233,10.3764329 93.171761,10.290661 C92.9566541,10.204272 92.7415472,10.1185001 92.4832956,9.98891658 C92.225044,9.90252759 91.9667925,9.77356117 91.6660126,9.68717218 C91.3646164,9.6007832 91.0206918,9.55820577 90.6336226,9.55820577 C90.0739748,9.55820577 89.643761,9.64459475 89.3429811,9.85995016 C89.0415849,10.0753056 88.9127673,10.37705 88.9127673,10.7213718 C88.9127673,10.9799217 88.9990566,11.2384716 89.2141635,11.4106325 C89.3861258,11.5827934 89.6443774,11.7549543 89.9889182,11.8845378 C90.2903145,12.0135042 90.6773836,12.1430877 91.0644528,12.2720541 C91.451522,12.4010205 91.8817358,12.530604 92.3119497,12.6595704 C92.7421635,12.7885368 93.1292327,13.0038923 93.5594465,13.1766702 C93.9465157,13.3920256 94.3342013,13.607381 94.6349811,13.9091254 C94.9363774,14.2108698 95.1946289,14.5551916 95.4097358,14.9859025 C95.5816981,15.4166133 95.7111321,15.9337131 95.7111321,16.4933903 C95.7111321,17.2258455 95.5823145,17.8719117 95.3240629,18.4747834 C95.0658113,19.0776552 94.6787421,19.594755 94.162239,20.0686603 C93.6457358,20.4993711 93.0004151,20.84431 92.2262767,21.1022428 C91.451522,21.3607927 90.5910943,21.4465646 89.6018491,21.4465646 C89.0853459,21.4465646 88.6119874,21.4033701 88.0961006,21.3175982 C87.5795975,21.2312092 87.106239,21.1022428 86.6760252,20.9300819 C86.2026667,20.757921 85.7724528,20.5857601 85.3853836,20.3697876 C84.9983145,20.1544322 84.6537736,19.8958823 84.3529937,19.6373324 L85.3853836,18.0434556 C85.5142013,17.8712946 85.6436352,17.6991337 85.8155975,17.6127447 C85.9875597,17.5263558 86.2026667,17.4405838 86.5040629,17.4405838 C86.7623145,17.4405838 86.9774214,17.4837783 87.1925283,17.6127447 C87.4076352,17.7417112 87.6227421,17.8281002 87.8378491,17.9570666 C88.052956,18.086033 88.3543522,18.2156165 88.6551321,18.3445829 C88.9565283,18.4735493 89.3867421,18.5167438 89.8601006,18.5167438 C90.2040252,18.5167438 90.4622767,18.4735493 90.7205283,18.4303548 C90.9356352,18.3439658 91.1507421,18.2581939 91.2801761,18.1286104 C91.4096101,17.9990269 91.5384277,17.8700605 91.5815723,17.7410941 C91.6678616,17.6121277 91.6678616,17.4393497 91.6678616,17.2671888 C91.6678616,16.9654444 91.5815723,16.750089 91.3664654,16.5347336 C91.1513585,16.3625727 90.8931069,16.1904118 90.5917107,16.0608283 C90.2903145,15.9318619 89.9032453,15.8022784 89.5161761,15.673312 C89.1291069,15.5443456 88.6988931,15.4147621 88.2686792,15.2857957 C87.8384654,15.1568292 87.4513962,14.9414738 87.0211824,14.7255014 C86.6341132,14.510146 86.2464277,14.2515961 85.9456478,13.9072742 C85.6442516,13.5629524 85.386,13.174819 85.1708931,12.7009137 C84.9557862,12.2270084 84.8694969,11.6673312 84.8694969,10.9780705 C84.8694969,10.3751988 84.9983145,9.77170998 85.2134214,9.21203275 C85.471673,8.65173846 85.8155975,8.17845022 86.288956,7.74712234 C86.7623145,7.31579447 87.3644906,6.97147265 88.0961006,6.75611724 C88.8277107,6.54076184 89.6449937,6.36860093 90.6348553,6.36860093 C91.1513585,6.36860093 91.6672453,6.41179542 92.1406038,6.49756734 C92.6139623,6.58395633 93.0873208,6.71292275 93.5175346,6.88508366 C93.9477484,7.05724457 94.3348176,7.27259998 94.6793585,7.48795538 C95.023283,7.70331079 95.3678239,7.96186069 95.6260755,8.22041059 L94.5912201,9.90314465 Z" id="Fill-15"></path>
                    <polygon id="Fill-17" points="97.8609686 21.3188323 102.206868 21.3188323 102.206868 0.254111784 97.8609686 0.254111784"></polygon>
                    <path d="M118.987673,6.71539101 L111.200063,25.1088406 C111.071245,25.410585 110.898667,25.6259404 110.726704,25.7549068 C110.554742,25.8838733 110.253346,25.9702623 109.823132,25.9702623 L106.553384,25.9702623 L109.35039,20.0686603 L103.541887,6.75796843 L107.414428,6.75796843 C107.758352,6.75796843 108.016604,6.84435742 108.189182,6.97332384 C108.361145,7.10229026 108.490579,7.31764566 108.576252,7.49042364 L110.985572,13.7795419 C111.200679,14.3398362 111.372642,14.942708 111.54522,15.5455797 C111.631509,15.2438353 111.760327,14.942708 111.846616,14.6409636 C111.932906,14.3392192 112.061723,14.0380918 112.190541,13.7363475 L114.34161,7.49042364 C114.427899,7.27506823 114.556717,7.10290732 114.771824,6.93012935 C114.986931,6.80116293 115.202038,6.71477394 115.460289,6.71477394 L118.987673,6.71477394 L118.987673,6.71539101 Z" id="Fill-19"></path>
                </g>
            </g>
        </g>
    </g>
</svg>