<?xml version="1.0" encoding="utf-8"?>
<!-- Generator: Adobe Illustrator 20.1.0, SVG Export Plug-In . SVG Version: 6.00 Build 0)  -->
<svg version="1.1" id="Layer_1" xmlns="http://www.w3.org/2000/svg" xmlns:xlink="http://www.w3.org/1999/xlink" x="0px" y="0px"
	 viewBox="0 0 813 352" style="enable-background:new 0 0 813 352;" xml:space="preserve">
<style type="text/css">
	.st0{fill:#7C1F5E;}
	.st1{enable-background:new    ;}
</style>
<title>6EDF73EE-337F-485D-BD0A-6BF6B275DF0B</title>
<desc>Created with sketchtool.</desc>
<g id="Logo">
	<polygon id="Fill-1" class="st0" points="108.2,56.8 90.4,121.7 161.8,110.8 180.6,233.5 214.7,242.8 254.5,96.6 	"/>
	<polygon id="Fill-2" class="st0" points="88.5,129.1 13,140.7 34.8,283.6 178,261.6 173.2,231.6 156,118.8 	"/>
	<path id="Fill-3" class="st0" d="M311,172.4c4.4,0,7.5-1.1,9.4-3.2c2-2.1,2.8-5,2.8-8.9c0-1.6-0.4-3.2-0.7-4.6
		c-0.5-1.4-1.2-2.7-2.3-3.6c-1.1-0.9-2.3-1.6-3.7-2.3c-1.6-0.5-3.4-0.7-5.5-0.7h-8.9v22.9L311,172.4L311,172.4L311,172.4z
		 M311,137.1c5.1,0,9.4,0.5,13.1,1.8s6.7,2.8,8.9,5c2.5,2.1,4.1,4.6,5.1,7.5c1.1,2.8,1.6,5.9,1.6,9.2c0,3.7-0.5,6.9-1.6,9.9
		c-1.2,3-2.8,5.7-5.3,7.8c-2.5,2.1-5.5,3.7-9.1,5c-3.7,1.2-8,1.8-13,1.8h-8.9v24.2h-16.7v-72.1H311L311,137.1z"/>
	<path id="Fill-5" class="st0" d="M360.5,165.7c1.6-2.7,3.4-5,5.5-6.6s4.4-2.5,7.1-2.5c2.3,0,4.3,0.5,5.7,1.6l-1.1,11.4
		c-0.2,0.7-0.5,1.2-0.7,1.6c-0.2,0.4-0.9,0.5-1.6,0.5h-1.1c-0.5,0-0.9,0-1.4-0.2c-0.5,0-0.9-0.2-1.4-0.2h-1.4
		c-2.3,0-4.1,0.5-5.3,1.8c-1.4,1.2-2.5,2.8-3.4,5v31.3h-15.3v-51.5h9.1c0.7,0,1.4,0,2,0.2c0.5,0.2,0.9,0.4,1.2,0.5
		c0.4,0.4,0.5,0.5,0.7,1.1c0.2,0.5,0.4,1.1,0.5,1.6L360.5,165.7z"/>
	<path id="Fill-7" class="st0" d="M406.7,198.7c3.6,0,6-1.2,7.8-3.7c1.6-2.5,2.7-6.2,2.7-11.4s-0.9-8.9-2.7-11.4
		c-1.6-2.5-4.3-3.7-7.8-3.7c-3.7,0-6.4,1.2-8,3.7s-2.7,6.2-2.7,11.4s0.9,8.9,2.7,11.4C400.3,197.5,403.1,198.7,406.7,198.7
		 M406.7,157c3.9,0,7.5,0.5,10.7,1.8c3.2,1.2,5.9,3,8.2,5.3c2.3,2.3,4.1,5,5.3,8.3c1.2,3.2,2,6.9,2,11s-0.5,7.8-2,11
		c-1.2,3.4-3,6-5.3,8.3s-5,4.1-8.2,5.3c-3.2,1.2-6.7,1.8-10.7,1.8s-7.6-0.5-10.8-1.8s-6-3-8.3-5.3c-2.3-2.3-4.1-5.1-5.5-8.3
		c-1.2-3.4-2-6.9-2-11s0.5-7.8,2-11c1.2-3.2,3-6,5.5-8.3c2.3-2.3,5.1-4.1,8.3-5.3C399.2,157.7,402.8,157,406.7,157"/>
	<path id="Fill-9" class="st0" d="M478.6,170c-0.5,0.5-0.9,1.1-1.4,1.4c-0.5,0.4-1.1,0.5-1.8,0.5c-0.7,0-1.6-0.2-2.1-0.5
		c-0.5-0.4-1.4-0.7-2.1-1.2c-0.7-0.5-1.6-0.9-2.7-1.2c-1.1-0.4-2.3-0.5-3.7-0.5c-1.8,0-3.6,0.4-4.8,1.1s-2.7,1.6-3.4,3
		c-0.9,1.2-1.6,2.8-2,4.8c-0.5,1.8-0.5,3.9-0.5,6.4c0,4.8,0.9,8.7,2.8,11.4s4.6,3.9,7.8,3.9c1.8,0,3.2-0.2,4.3-0.5
		c1.1-0.5,2-0.9,2.7-1.6c0.7-0.5,1.4-1.1,2-1.6c0.5-0.5,1.4-0.7,2.3-0.7c1.2,0,2.1,0.5,2.7,1.4l4.4,5.5c-1.6,1.8-3.2,3.4-5,4.4
		c-1.8,1.2-3.6,2-5.3,2.7c-1.8,0.5-3.7,1.1-5.5,1.4c-1.8,0.4-3.7,0.4-5.5,0.4c-3.2,0-6-0.5-8.9-1.8s-5.3-2.8-7.6-5.1
		c-2.1-2.3-3.9-5-5.1-8.3s-2-7.1-2-11.4c0-3.7,0.5-7.1,1.6-10.3c1.1-3.2,2.7-6,4.8-8.3c2.1-2.5,4.8-4.3,8-5.7c3.2-1.4,6.7-2,11-2
		c4.1,0,7.6,0.5,10.7,2s5.7,3.2,8.2,5.7L478.6,170z"/>
	<path id="Fill-11" class="st0" d="M520.2,177.4c0-1.2-0.2-2.5-0.5-3.7s-0.7-2.1-1.6-3c-0.7-0.9-1.6-1.6-2.7-2.3
		c-1.2-0.5-2.7-0.9-4.3-0.9c-2.8,0-5.1,0.9-6.7,2.7c-1.6,1.6-2.7,4.1-3.4,7.3H520.2L520.2,177.4z M500.8,186.3
		c0.5,4.3,1.8,7.5,3.9,9.4c2.1,2,4.8,2.8,8.2,2.8c1.8,0,3.4-0.2,4.6-0.5c1.4-0.5,2.5-0.9,3.6-1.4c1.1-0.5,2-1.1,2.7-1.4
		c0.9-0.5,1.6-0.5,2.7-0.5c1.2,0,2.1,0.5,2.7,1.4l4.4,5.5c-1.6,1.8-3.4,3.4-5.2,4.4c-1.8,1.2-3.7,2-5.7,2.7c-2,0.5-3.7,1.1-5.7,1.4
		c-2,0.4-3.7,0.4-5.5,0.4c-3.7,0-6.9-0.5-10.1-1.8s-5.9-2.8-8.3-5.1c-2.5-2.3-4.3-5.1-5.7-8.7c-1.4-3.6-2.1-7.5-2.1-12.1
		c0-3.6,0.5-6.7,1.8-9.8s2.8-5.7,5-8c2.1-2.3,4.8-4.1,8-5.5c3.2-1.4,6.7-2,10.7-2c3.4,0,6.6,0.5,9.4,1.6c2.8,1.1,5.3,2.7,7.3,4.6
		c2,2,3.7,4.6,4.8,7.5c1.2,2.8,1.6,6.2,1.6,9.9c0,1.2,0,2.1-0.2,2.8s-0.4,1.4-0.5,1.6c-0.4,0.5-0.5,0.7-1.1,0.9
		c-0.5,0.2-1.1,0.4-1.6,0.4h-29.5L500.8,186.3L500.8,186.3z"/>
	<path id="Fill-13" class="st0" d="M574.3,169.1c-0.5,0.5-0.7,1.1-1.2,1.4s-1.1,0.5-1.6,0.5c-0.7,0-1.6-0.2-2.1-0.5
		c-0.7-0.4-1.6-0.5-2.5-1.1c-0.9-0.4-1.8-0.7-2.8-1.1s-2.3-0.5-3.7-0.5c-2,0-3.6,0.4-4.6,1.1s-1.6,1.8-1.6,3c0,0.9,0.4,1.8,1.1,2.5
		c0.5,0.5,1.6,1.2,2.7,1.6c1.1,0.5,2.5,0.9,3.7,1.4c1.4,0.5,2.8,0.9,4.4,1.4s2.8,1.2,4.4,1.8c1.4,0.7,2.7,1.6,3.7,2.7
		c1.1,1.1,2,2.3,2.7,3.7c0.5,1.6,1.1,3.4,1.1,5.3c0,2.7-0.5,4.8-1.4,6.9s-2.3,3.9-4.1,5.7c-1.8,1.6-4.1,2.7-6.7,3.7
		s-5.7,1.2-9.2,1.2c-1.8,0-3.6-0.2-5.3-0.5c-1.8-0.4-3.6-0.7-5-1.4s-3.2-1.2-4.6-2s-2.7-1.6-3.7-2.7l3.7-5.7
		c0.5-0.5,0.9-1.2,1.6-1.6c0.5-0.4,1.4-0.5,2.5-0.5c0.9,0,1.6,0.2,2.5,0.5c0.7,0.5,1.6,0.7,2.3,1.2c0.7,0.5,1.8,0.9,2.8,1.4
		s2.7,0.5,4.3,0.5c1.2,0,2.1-0.2,3-0.4c0.7-0.4,1.6-0.5,2-1.1c0.5-0.5,0.9-0.9,1.1-1.4c0.4-0.5,0.4-1.1,0.4-1.6
		c0-1.1-0.4-1.8-1.1-2.7c-0.7-0.5-1.6-1.2-2.7-1.6c-1.1-0.5-2.5-0.9-3.7-1.4c-1.4-0.5-2.8-0.9-4.4-1.4s-2.8-1.2-4.4-2
		c-1.4-0.7-2.7-1.6-3.7-2.8s-2-2.7-2.7-4.3c-0.7-1.6-1.1-3.7-1.1-6c0-2.1,0.5-4.3,1.2-6.2c0.9-2,2.1-3.7,3.7-5.1
		c1.6-1.6,3.7-2.7,6.4-3.6s5.5-1.4,8.9-1.4c1.8,0,3.7,0.2,5.3,0.5s3.4,0.7,4.8,1.4c1.6,0.5,2.8,1.4,4.1,2.1s2.5,1.6,3.4,2.7
		L574.3,169.1z"/>
	<path id="Fill-15" class="st0" d="M618.5,169.1c-0.5,0.5-0.7,1.1-1.2,1.4c-0.5,0.4-1.1,0.5-1.6,0.5c-0.7,0-1.6-0.2-2.1-0.5
		c-0.7-0.4-1.6-0.5-2.5-1.1c-0.9-0.4-1.8-0.7-2.8-1.1s-2.3-0.5-3.7-0.5c-2,0-3.6,0.4-4.6,1.1s-1.6,1.8-1.6,3c0,0.9,0.4,1.8,1.1,2.5
		c0.5,0.5,1.6,1.2,2.7,1.6c1.1,0.5,2.5,0.9,3.7,1.4c1.4,0.5,2.8,0.9,4.4,1.4c1.6,0.5,2.8,1.2,4.4,1.8c1.4,0.7,2.7,1.6,3.7,2.7
		s2,2.3,2.7,3.7c0.5,1.6,1.1,3.4,1.1,5.3c0,2.7-0.5,4.8-1.4,6.9c-0.9,2.1-2.3,3.9-4.1,5.7c-1.8,1.6-4.1,2.7-6.7,3.7
		c-2.7,0.9-5.7,1.2-9.2,1.2c-1.8,0-3.6-0.2-5.3-0.5c-1.8-0.4-3.6-0.7-5-1.4c-1.6-0.5-3.2-1.2-4.6-2s-2.7-1.6-3.7-2.7l3.7-5.7
		c0.5-0.5,0.9-1.2,1.6-1.6c0.5-0.4,1.4-0.5,2.5-0.5c0.9,0,1.6,0.2,2.5,0.5c0.7,0.5,1.6,0.7,2.3,1.2c0.7,0.5,1.8,0.9,2.8,1.4
		s2.7,0.5,4.3,0.5c1.2,0,2.1-0.2,3-0.4c0.7-0.4,1.6-0.5,2-1.1c0.5-0.5,0.9-0.9,1.1-1.4c0.4-0.5,0.4-1.1,0.4-1.6
		c0-1.1-0.4-1.8-1.1-2.7c-0.7-0.5-1.6-1.2-2.7-1.6c-1.1-0.5-2.5-0.9-3.7-1.4c-1.4-0.5-2.8-0.9-4.4-1.4c-1.6-0.5-2.8-1.2-4.4-2
		c-1.4-0.7-2.7-1.6-3.7-2.8s-2-2.7-2.7-4.3s-1.1-3.7-1.1-6c0-2.1,0.5-4.3,1.2-6.2c0.9-2,2.1-3.7,3.7-5.1c1.6-1.6,3.7-2.7,6.4-3.6
		c2.7-0.7,5.5-1.4,8.9-1.4c1.8,0,3.7,0.2,5.3,0.5s3.4,0.7,4.8,1.4c1.6,0.5,2.8,1.4,4.1,2.1c1.2,0.7,2.5,1.6,3.4,2.7L618.5,169.1z"/>
	<polygon id="Fill-17" class="st0" points="630.1,209.2 645.5,209.2 645.5,135 630.1,135 	"/>
	<path id="Fill-19" class="st0" d="M704.7,157.9l-27.5,64.8c-0.5,1.1-1.1,1.8-1.6,2.3s-1.6,0.7-3.2,0.7h-11.5l9.9-20.8l-20.4-46.9
		H664c1.2,0,2.1,0.4,2.7,0.7c0.5,0.5,1.1,1.2,1.4,1.8l8.5,22.2c0.7,2,1.4,4.1,2,6.2c0.4-1.1,0.7-2.1,1.1-3.2s0.7-2.1,1.2-3.2l7.6-22
		c0.4-0.7,0.7-1.4,1.6-2c0.7-0.5,1.6-0.7,2.5-0.7L704.7,157.9L704.7,157.9z"/>
</g>
<g class="st1">
	<path class="st0" d="M309.5,272.6l0,5.3h-25.1v-40.3h25.1v5.3h-18.6v12.2h14.8v5.1h-14.8v12.5L309.5,272.6L309.5,272.6z"/>
	<path class="st0" d="M340,277.9h-5.8c-0.5,0-0.8-0.1-1.1-0.4c-0.3-0.2-0.5-0.5-0.7-0.8l-6.6-10.6c-0.2,0.6-0.4,1.2-0.7,1.7l-6,8.9
		c-0.2,0.3-0.4,0.6-0.7,0.8s-0.6,0.4-1,0.4h-5.4l9.9-14.7l-9.5-13.8h5.8c0.5,0,0.8,0.1,1,0.2c0.2,0.1,0.4,0.4,0.6,0.6l6.5,10.1
		c0.2-0.6,0.4-1.2,0.8-1.8l5.5-8.2c0.4-0.6,0.8-1,1.4-1h5.5l-9.5,13.6L340,277.9z"/>
	<path class="st0" d="M349.7,253.5c1.2-1.4,2.6-2.5,4.1-3.4c1.5-0.9,3.3-1.3,5.3-1.3c1.6,0,3.1,0.3,4.4,1s2.4,1.6,3.4,2.8
		c0.9,1.2,1.7,2.8,2.2,4.6c0.5,1.8,0.8,3.9,0.8,6.3c0,2.1-0.3,4.1-0.9,5.9c-0.6,1.8-1.4,3.4-2.5,4.7c-1.1,1.3-2.4,2.4-3.9,3.1
		c-1.5,0.8-3.2,1.1-5.1,1.1c-1.7,0-3.1-0.3-4.3-0.8c-1.2-0.5-2.2-1.3-3.2-2.2v12.1h-6v-38.1h3.6c0.8,0,1.3,0.4,1.6,1.1L349.7,253.5z
		 M350,270.8c0.8,1.1,1.8,1.8,2.8,2.3s2.1,0.7,3.3,0.7c2.4,0,4.2-0.9,5.5-2.6s2-4.3,2-7.7c0-1.8-0.1-3.3-0.4-4.5
		c-0.3-1.2-0.7-2.3-1.3-3s-1.2-1.4-2-1.7c-0.8-0.4-1.7-0.5-2.7-0.5c-1.5,0-2.9,0.3-4,1c-1.1,0.7-2.1,1.6-3.1,2.8V270.8z"/>
	<path class="st0" d="M388,248.9c2.1,0,4,0.3,5.7,1s3.2,1.7,4.4,2.9c1.2,1.3,2.1,2.8,2.8,4.6c0.7,1.8,1,3.8,1,6.1s-0.3,4.3-1,6.1
		c-0.7,1.8-1.6,3.4-2.8,4.6s-2.7,2.3-4.4,3s-3.6,1-5.7,1c-2.1,0-4-0.3-5.8-1s-3.2-1.7-4.4-3c-1.2-1.3-2.1-2.8-2.8-4.6s-1-3.8-1-6.1
		s0.3-4.3,1-6.1c0.7-1.8,1.6-3.4,2.8-4.6c1.2-1.3,2.7-2.2,4.4-2.9S385.8,248.9,388,248.9z M388,273.7c2.6,0,4.5-0.9,5.8-2.6
		s1.9-4.2,1.9-7.4c0-3.2-0.6-5.7-1.9-7.4c-1.3-1.7-3.2-2.6-5.8-2.6c-2.6,0-4.6,0.9-5.8,2.6s-1.9,4.2-1.9,7.4c0,3.2,0.6,5.7,1.9,7.4
		S385.4,273.7,388,273.7z"/>
	<path class="st0" d="M424.7,254.6c-0.1,0.3-0.3,0.4-0.5,0.6c-0.2,0.1-0.4,0.2-0.7,0.2c-0.3,0-0.7-0.1-1-0.3
		c-0.4-0.2-0.8-0.4-1.3-0.7c-0.5-0.2-1.1-0.5-1.8-0.7c-0.7-0.2-1.5-0.3-2.4-0.3c-0.7,0-1.4,0.1-2,0.3c-0.6,0.2-1.1,0.4-1.5,0.8
		c-0.4,0.3-0.7,0.7-1,1.1c-0.2,0.4-0.3,0.9-0.3,1.4c0,0.7,0.2,1.2,0.6,1.7s1,0.8,1.6,1.2c0.7,0.3,1.4,0.6,2.3,0.9
		c0.9,0.3,1.7,0.5,2.6,0.8c0.9,0.3,1.8,0.6,2.6,1c0.9,0.4,1.6,0.9,2.3,1.4c0.7,0.6,1.2,1.3,1.6,2.1c0.4,0.8,0.6,1.8,0.6,3
		c0,1.3-0.2,2.6-0.7,3.7s-1.2,2.1-2.1,3s-2.1,1.5-3.5,2s-3,0.7-4.8,0.7c-1,0-1.9-0.1-2.9-0.3c-0.9-0.2-1.8-0.4-2.6-0.7
		c-0.8-0.3-1.6-0.7-2.3-1.1c-0.7-0.4-1.4-0.9-1.9-1.4l1.4-2.3c0.2-0.3,0.4-0.5,0.6-0.7s0.6-0.2,0.9-0.2c0.4,0,0.8,0.1,1.2,0.4
		c0.4,0.3,0.8,0.5,1.3,0.8c0.5,0.3,1.1,0.6,1.9,0.8s1.6,0.4,2.7,0.4c0.9,0,1.7-0.1,2.3-0.3c0.7-0.2,1.2-0.5,1.6-0.9
		c0.4-0.4,0.7-0.8,1-1.3c0.2-0.5,0.3-1,0.3-1.5c0-0.7-0.2-1.3-0.6-1.8c-0.4-0.5-1-0.9-1.6-1.2s-1.5-0.6-2.3-0.9
		c-0.9-0.3-1.8-0.5-2.6-0.8c-0.9-0.3-1.8-0.6-2.6-1c-0.9-0.4-1.6-0.9-2.3-1.5c-0.7-0.6-1.2-1.3-1.6-2.2c-0.4-0.9-0.6-1.9-0.6-3.2
		c0-1.1,0.2-2.2,0.7-3.2c0.5-1,1.1-1.9,2-2.7s2-1.4,3.3-1.9c1.3-0.5,2.8-0.7,4.5-0.7c1.9,0,3.7,0.3,5.2,0.9s2.9,1.5,3.9,2.5
		L424.7,254.6z"/>
	<path class="st0" d="M439.3,240.8c0,0.5-0.1,1.1-0.3,1.5c-0.2,0.5-0.5,0.9-0.9,1.3s-0.8,0.7-1.3,0.9c-0.5,0.2-1,0.3-1.6,0.3
		c-0.5,0-1-0.1-1.5-0.3s-0.9-0.5-1.2-0.9s-0.6-0.8-0.9-1.3c-0.2-0.5-0.3-1-0.3-1.5c0-0.6,0.1-1.1,0.3-1.6c0.2-0.5,0.5-0.9,0.9-1.3
		c0.4-0.4,0.8-0.7,1.2-0.9s1-0.3,1.5-0.3c0.6,0,1.1,0.1,1.6,0.3c0.5,0.2,0.9,0.5,1.3,0.9c0.4,0.4,0.7,0.8,0.9,1.3
		C439.2,239.7,439.3,240.2,439.3,240.8z M438.3,249.4v28.6h-6v-28.6H438.3z"/>
	<path class="st0" d="M451.5,253.2c0.6-0.6,1.3-1.2,1.9-1.7s1.4-1,2.1-1.3c0.7-0.4,1.5-0.7,2.4-0.9c0.8-0.2,1.8-0.3,2.7-0.3
		c1.6,0,2.9,0.3,4.1,0.8s2.2,1.3,3,2.2s1.4,2.1,1.8,3.4c0.4,1.3,0.6,2.8,0.6,4.4v18.2h-6v-18.2c0-1.9-0.4-3.4-1.3-4.5
		c-0.9-1.1-2.2-1.6-4-1.6c-1.3,0-2.6,0.3-3.7,0.9s-2.2,1.5-3.2,2.5v20.8h-6v-28.6h3.6c0.8,0,1.3,0.4,1.6,1.1L451.5,253.2z"/>
	<path class="st0" d="M501.9,250.4v2.2c0,0.7-0.4,1.2-1.3,1.4l-2.9,0.5c0.5,1.1,0.7,2.3,0.7,3.6c0,1.4-0.3,2.7-0.8,3.8
		c-0.6,1.1-1.3,2.1-2.3,2.9s-2.1,1.4-3.5,1.8c-1.3,0.4-2.8,0.6-4.4,0.6c-0.6,0-1.2,0-1.8-0.1s-1.1-0.2-1.7-0.3
		c-0.5,0.3-0.9,0.7-1.2,1c-0.3,0.4-0.4,0.7-0.4,1.1c0,0.6,0.3,1.1,0.8,1.4c0.5,0.3,1.3,0.5,2.1,0.6c0.9,0.1,1.9,0.2,3,0.3
		c1.1,0,2.3,0.1,3.5,0.2c1.2,0.1,2.3,0.2,3.5,0.5c1.1,0.2,2.2,0.6,3,1.1c0.9,0.5,1.6,1.2,2.1,2c0.5,0.8,0.8,1.9,0.8,3.3
		c0,1.2-0.3,2.4-0.9,3.6c-0.6,1.2-1.5,2.2-2.7,3.1c-1.2,0.9-2.6,1.6-4.3,2.2c-1.7,0.6-3.6,0.8-5.7,0.8c-2.1,0-4-0.2-5.6-0.6
		c-1.6-0.4-2.9-1-3.9-1.7c-1.1-0.7-1.8-1.5-2.4-2.4c-0.5-0.9-0.8-1.9-0.8-2.9c0-1.3,0.4-2.5,1.3-3.4s2-1.7,3.5-2.2
		c-0.8-0.4-1.4-0.9-1.9-1.5c-0.5-0.7-0.7-1.5-0.7-2.6c0-0.8,0.3-1.7,0.9-2.6c0.6-0.9,1.5-1.7,2.8-2.3c-1.4-0.8-2.5-1.8-3.4-3.1
		c-0.8-1.3-1.2-2.8-1.2-4.5c0-1.4,0.3-2.7,0.8-3.8s1.3-2.1,2.3-2.9c1-0.8,2.2-1.4,3.5-1.8s2.8-0.6,4.4-0.6c2.5,0,4.6,0.5,6.4,1.5
		L501.9,250.4L501.9,250.4z M495.9,279.3c0-0.6-0.2-1.1-0.5-1.5c-0.4-0.4-0.9-0.7-1.5-0.9c-0.6-0.2-1.3-0.4-2.2-0.5
		s-1.7-0.2-2.6-0.2s-1.9-0.1-2.8-0.1c-1,0-1.9-0.1-2.8-0.3c-0.9,0.5-1.6,1-2.2,1.7c-0.6,0.7-0.9,1.4-0.9,2.3c0,0.6,0.1,1.1,0.4,1.6
		s0.7,0.9,1.3,1.3c0.6,0.4,1.4,0.6,2.3,0.8c0.9,0.2,2.1,0.3,3.4,0.3c2.6,0,4.6-0.4,6-1.2C495.2,281.7,495.9,280.6,495.9,279.3z
		 M487.5,263.4c1.9,0,3.3-0.5,4.2-1.4s1.4-2.2,1.4-3.7c0-1.6-0.5-2.8-1.4-3.7c-0.9-0.9-2.3-1.4-4.2-1.4c-1.8,0-3.2,0.5-4.2,1.4
		c-0.9,0.9-1.4,2.2-1.4,3.7c0,0.7,0.1,1.4,0.4,2.1c0.2,0.6,0.6,1.2,1.1,1.6c0.5,0.5,1,0.8,1.8,1.1S486.6,263.4,487.5,263.4z"/>
	<path class="st0" d="M529.8,278.4c-2.4,0-4.2-0.7-5.5-2c-1.3-1.3-1.9-3.2-1.9-5.6v-16.6h-3.1c-0.3,0-0.6-0.1-0.9-0.3
		c-0.2-0.2-0.4-0.5-0.4-1v-2.4l4.6-0.7l1.3-8.3c0.1-0.3,0.3-0.6,0.5-0.8c0.2-0.2,0.5-0.3,0.9-0.3h3.1v9.4h7.9v4.3h-7.9v16.2
		c0,1,0.3,1.8,0.8,2.4c0.5,0.5,1.2,0.8,2,0.8c0.5,0,0.9-0.1,1.2-0.2s0.6-0.3,0.9-0.4c0.2-0.1,0.5-0.3,0.6-0.4
		c0.2-0.1,0.3-0.2,0.5-0.2c0.3,0,0.6,0.2,0.8,0.6l1.8,2.9c-0.9,0.8-2,1.5-3.3,1.9S531.1,278.4,529.8,278.4z"/>
	<path class="st0" d="M547.1,252.8c1.2-1.2,2.5-2.1,3.9-2.8s3-1,4.9-1c1.6,0,2.9,0.3,4.1,0.8c1.2,0.5,2.2,1.3,3,2.2s1.4,2.1,1.8,3.4
		c0.4,1.3,0.6,2.8,0.6,4.4v18.2h-6v-18.2c0-1.9-0.4-3.4-1.3-4.5c-0.9-1.1-2.2-1.6-4-1.6c-1.3,0-2.6,0.3-3.7,0.9s-2.2,1.5-3.2,2.5
		v20.8h-6v-41.4h6V252.8z"/>
	<path class="st0" d="M576.9,264.1c0.1,1.6,0.3,3,0.8,4.2c0.4,1.2,1,2.2,1.7,3c0.7,0.8,1.6,1.4,2.6,1.8c1,0.4,2.1,0.6,3.3,0.6
		c1.2,0,2.2-0.1,3.1-0.4s1.6-0.6,2.2-0.9c0.6-0.3,1.2-0.6,1.6-0.9s0.9-0.4,1.2-0.4c0.5,0,0.9,0.2,1.1,0.6l1.7,2.2
		c-0.7,0.8-1.5,1.5-2.4,2.1c-0.9,0.6-1.8,1-2.9,1.4c-1,0.4-2,0.6-3.1,0.8c-1.1,0.2-2.1,0.2-3.1,0.2c-2,0-3.8-0.3-5.5-1
		c-1.7-0.7-3.2-1.6-4.4-2.9c-1.2-1.3-2.2-2.9-2.9-4.8c-0.7-1.9-1.1-4.1-1.1-6.6c0-2,0.3-3.8,0.9-5.5c0.6-1.7,1.5-3.2,2.7-4.5
		c1.2-1.3,2.6-2.3,4.3-3c1.7-0.7,3.6-1.1,5.7-1.1c1.8,0,3.4,0.3,4.9,0.9c1.5,0.6,2.8,1.4,3.9,2.5c1.1,1.1,1.9,2.5,2.5,4
		c0.6,1.6,0.9,3.4,0.9,5.4c0,0.9-0.1,1.6-0.3,1.9c-0.2,0.3-0.6,0.5-1.1,0.5L576.9,264.1L576.9,264.1z M591.2,260.4
		c0-1-0.1-1.9-0.4-2.8c-0.3-0.9-0.7-1.6-1.3-2.3s-1.3-1.1-2.1-1.5c-0.8-0.4-1.8-0.5-2.9-0.5c-2.2,0-3.9,0.6-5.2,1.9
		c-1.2,1.2-2,3-2.4,5.3L591.2,260.4L591.2,260.4z"/>
	<path class="st0" d="M629.9,237.6c2.6,0,4.9,0.3,6.8,0.9c1.9,0.6,3.5,1.5,4.8,2.6c1.3,1.1,2.2,2.4,2.8,4c0.6,1.6,0.9,3.3,0.9,5.2
		c0,1.9-0.3,3.7-1,5.3c-0.7,1.6-1.6,3-2.9,4.1c-1.3,1.1-2.9,2-4.8,2.7c-1.9,0.6-4.1,1-6.7,1h-6v14.6h-6.6v-40.3H629.9z M629.9,258.2
		c1.5,0,2.7-0.2,3.8-0.6c1.1-0.4,2-0.9,2.8-1.6c0.7-0.7,1.3-1.5,1.7-2.5c0.4-1,0.6-2.1,0.6-3.2c0-1.2-0.2-2.2-0.5-3.2
		s-0.9-1.7-1.6-2.4s-1.6-1.2-2.8-1.5c-1.1-0.3-2.4-0.5-3.9-0.5h-6v15.4L629.9,258.2L629.9,258.2z"/>
	<path class="st0" d="M655.6,254.7c0.9-1.8,2-3.2,3.2-4.3c1.3-1,2.8-1.6,4.6-1.6c0.6,0,1.2,0.1,1.7,0.2c0.5,0.1,1,0.4,1.5,0.6
		l-0.4,4.5c-0.1,0.3-0.2,0.5-0.4,0.7s-0.4,0.2-0.6,0.2c-0.3,0-0.7-0.1-1.2-0.2c-0.5-0.1-1.1-0.2-1.7-0.2c-0.8,0-1.6,0.1-2.2,0.4
		c-0.6,0.2-1.2,0.6-1.7,1.1s-1,1-1.4,1.7s-0.8,1.4-1.1,2.3v17.8h-6v-28.6h3.5c0.6,0,1.1,0.1,1.3,0.4s0.4,0.6,0.5,1.2L655.6,254.7z"
		/>
	<path class="st0" d="M681.9,248.9c2.1,0,4,0.3,5.7,1s3.2,1.7,4.4,2.9c1.2,1.3,2.1,2.8,2.8,4.6c0.7,1.8,1,3.8,1,6.1s-0.3,4.3-1,6.1
		c-0.7,1.8-1.6,3.4-2.8,4.6c-1.2,1.3-2.7,2.3-4.4,3s-3.6,1-5.7,1c-2.1,0-4-0.3-5.8-1s-3.2-1.7-4.4-3c-1.2-1.3-2.1-2.8-2.8-4.6
		s-1-3.8-1-6.1s0.3-4.3,1-6.1s1.6-3.4,2.8-4.6c1.2-1.3,2.7-2.2,4.4-2.9S679.8,248.9,681.9,248.9z M681.9,273.7
		c2.6,0,4.5-0.9,5.8-2.6c1.3-1.7,1.9-4.2,1.9-7.4c0-3.2-0.6-5.7-1.9-7.4c-1.3-1.7-3.2-2.6-5.8-2.6c-2.6,0-4.6,0.9-5.8,2.6
		c-1.3,1.7-1.9,4.2-1.9,7.4c0,3.2,0.6,5.7,1.9,7.4C677.4,272.8,679.3,273.7,681.9,273.7z"/>
	<path class="st0" d="M721.8,255c-0.2,0.2-0.4,0.4-0.5,0.6c-0.2,0.1-0.4,0.2-0.7,0.2s-0.6-0.1-1-0.3c-0.3-0.2-0.8-0.5-1.2-0.7
		c-0.5-0.3-1-0.5-1.7-0.7c-0.7-0.2-1.5-0.3-2.5-0.3c-1.3,0-2.5,0.2-3.4,0.7c-1,0.5-1.8,1.1-2.5,2c-0.7,0.9-1.2,1.9-1.5,3.2
		c-0.3,1.2-0.5,2.6-0.5,4.2c0,1.6,0.2,3,0.5,4.3c0.4,1.3,0.9,2.3,1.5,3.2c0.7,0.9,1.5,1.5,2.4,2c0.9,0.4,2,0.7,3.2,0.7
		c1.2,0,2.1-0.1,2.8-0.4c0.7-0.3,1.3-0.6,1.8-0.9s0.9-0.6,1.2-0.9s0.7-0.4,1.1-0.4c0.5,0,0.9,0.2,1.1,0.6l1.7,2.2
		c-0.7,0.8-1.5,1.5-2.3,2.1c-0.8,0.6-1.7,1-2.7,1.4c-0.9,0.4-1.9,0.6-2.9,0.8c-1,0.2-2,0.2-3.1,0.2c-1.8,0-3.4-0.3-5-1
		s-2.9-1.6-4-2.9c-1.1-1.3-2.1-2.8-2.7-4.6c-0.7-1.8-1-3.9-1-6.2c0-2.1,0.3-4.1,0.9-5.9s1.5-3.4,2.6-4.7c1.1-1.3,2.6-2.3,4.3-3.1
		c1.7-0.7,3.7-1.1,5.9-1.1c2.1,0,3.9,0.3,5.5,1c1.6,0.7,3,1.6,4.2,2.9L721.8,255z"/>
	<path class="st0" d="M732.3,264.1c0.1,1.6,0.3,3,0.8,4.2c0.4,1.2,1,2.2,1.7,3s1.6,1.4,2.6,1.8c1,0.4,2.1,0.6,3.3,0.6
		c1.2,0,2.2-0.1,3.1-0.4c0.9-0.3,1.6-0.6,2.2-0.9c0.6-0.3,1.2-0.6,1.6-0.9c0.4-0.3,0.9-0.4,1.2-0.4c0.5,0,0.9,0.2,1.1,0.6l1.7,2.2
		c-0.7,0.8-1.5,1.5-2.4,2.1c-0.9,0.6-1.8,1-2.9,1.4c-1,0.4-2,0.6-3.1,0.8c-1.1,0.2-2.1,0.2-3.1,0.2c-2,0-3.8-0.3-5.5-1
		s-3.2-1.6-4.4-2.9s-2.2-2.9-2.9-4.8s-1-4.1-1-6.6c0-2,0.3-3.8,0.9-5.5c0.6-1.7,1.5-3.2,2.7-4.5c1.2-1.3,2.6-2.3,4.3-3
		c1.7-0.7,3.6-1.1,5.7-1.1c1.8,0,3.4,0.3,4.9,0.9c1.5,0.6,2.8,1.4,3.9,2.5c1.1,1.1,1.9,2.5,2.5,4c0.6,1.6,0.9,3.4,0.9,5.4
		c0,0.9-0.1,1.6-0.3,1.9c-0.2,0.3-0.6,0.5-1.1,0.5L732.3,264.1L732.3,264.1z M746.7,260.4c0-1-0.1-1.9-0.4-2.8
		c-0.3-0.9-0.7-1.6-1.3-2.3c-0.6-0.6-1.3-1.1-2.1-1.5c-0.8-0.4-1.8-0.5-2.9-0.5c-2.2,0-3.9,0.6-5.2,1.9c-1.3,1.2-2,3-2.4,5.3
		L746.7,260.4L746.7,260.4z"/>
	<path class="st0" d="M774.7,254.6c-0.1,0.3-0.3,0.4-0.5,0.6s-0.4,0.2-0.7,0.2c-0.3,0-0.7-0.1-1-0.3c-0.4-0.2-0.8-0.4-1.3-0.7
		c-0.5-0.2-1.1-0.5-1.8-0.7c-0.7-0.2-1.5-0.3-2.4-0.3c-0.7,0-1.4,0.1-2,0.3c-0.6,0.2-1.1,0.4-1.5,0.8c-0.4,0.3-0.7,0.7-1,1.1
		s-0.3,0.9-0.3,1.4c0,0.7,0.2,1.2,0.6,1.7c0.4,0.4,1,0.8,1.6,1.2c0.7,0.3,1.4,0.6,2.3,0.9c0.9,0.3,1.7,0.5,2.6,0.8
		c0.9,0.3,1.8,0.6,2.6,1s1.6,0.9,2.3,1.4s1.2,1.3,1.6,2.1c0.4,0.8,0.6,1.8,0.6,3c0,1.3-0.2,2.6-0.7,3.7s-1.2,2.1-2.1,3
		s-2.1,1.5-3.5,2c-1.4,0.5-3,0.7-4.8,0.7c-1,0-1.9-0.1-2.9-0.3s-1.8-0.4-2.6-0.7c-0.8-0.3-1.6-0.7-2.3-1.1s-1.4-0.9-1.9-1.4l1.4-2.3
		c0.2-0.3,0.4-0.5,0.6-0.7s0.6-0.2,0.9-0.2c0.4,0,0.8,0.1,1.2,0.4s0.8,0.5,1.3,0.8c0.5,0.3,1.1,0.6,1.9,0.8c0.7,0.3,1.6,0.4,2.7,0.4
		c0.9,0,1.7-0.1,2.3-0.3c0.7-0.2,1.2-0.5,1.6-0.9c0.4-0.4,0.7-0.8,1-1.3c0.2-0.5,0.3-1,0.3-1.5c0-0.7-0.2-1.3-0.6-1.8
		c-0.4-0.5-1-0.9-1.6-1.2s-1.5-0.6-2.3-0.9s-1.8-0.5-2.6-0.8c-0.9-0.3-1.8-0.6-2.6-1s-1.6-0.9-2.3-1.5c-0.7-0.6-1.2-1.3-1.6-2.2
		c-0.4-0.9-0.6-1.9-0.6-3.2c0-1.1,0.2-2.2,0.7-3.2c0.5-1,1.1-1.9,2-2.7c0.9-0.8,2-1.4,3.3-1.9c1.3-0.5,2.8-0.7,4.5-0.7
		c1.9,0,3.7,0.3,5.2,0.9c1.6,0.6,2.9,1.5,3.9,2.5L774.7,254.6z"/>
	<path class="st0" d="M799.2,254.6c-0.1,0.3-0.3,0.4-0.5,0.6s-0.4,0.2-0.7,0.2c-0.3,0-0.7-0.1-1-0.3c-0.4-0.2-0.8-0.4-1.3-0.7
		c-0.5-0.2-1.1-0.5-1.8-0.7c-0.7-0.2-1.5-0.3-2.4-0.3c-0.7,0-1.4,0.1-2,0.3c-0.6,0.2-1.1,0.4-1.5,0.8c-0.4,0.3-0.7,0.7-1,1.1
		s-0.3,0.9-0.3,1.4c0,0.7,0.2,1.2,0.6,1.7c0.4,0.4,1,0.8,1.6,1.2c0.7,0.3,1.4,0.6,2.3,0.9c0.9,0.3,1.7,0.5,2.6,0.8
		c0.9,0.3,1.8,0.6,2.6,1s1.6,0.9,2.3,1.4s1.2,1.3,1.6,2.1c0.4,0.8,0.6,1.8,0.6,3c0,1.3-0.2,2.6-0.7,3.7s-1.2,2.1-2.1,3
		s-2.1,1.5-3.5,2c-1.4,0.5-3,0.7-4.8,0.7c-1,0-1.9-0.1-2.9-0.3s-1.8-0.4-2.6-0.7c-0.8-0.3-1.6-0.7-2.3-1.1s-1.4-0.9-1.9-1.4l1.4-2.3
		c0.2-0.3,0.4-0.5,0.6-0.7s0.6-0.2,0.9-0.2c0.4,0,0.8,0.1,1.2,0.4s0.8,0.5,1.3,0.8c0.5,0.3,1.1,0.6,1.9,0.8c0.7,0.3,1.6,0.4,2.7,0.4
		c0.9,0,1.7-0.1,2.3-0.3c0.7-0.2,1.2-0.5,1.6-0.9c0.4-0.4,0.7-0.8,1-1.3c0.2-0.5,0.3-1,0.3-1.5c0-0.7-0.2-1.3-0.6-1.8
		c-0.4-0.5-1-0.9-1.6-1.2s-1.5-0.6-2.3-0.9s-1.8-0.5-2.6-0.8c-0.9-0.3-1.8-0.6-2.6-1s-1.6-0.9-2.3-1.5c-0.7-0.6-1.2-1.3-1.6-2.2
		c-0.4-0.9-0.6-1.9-0.6-3.2c0-1.1,0.2-2.2,0.7-3.2c0.5-1,1.1-1.9,2-2.7c0.9-0.8,2-1.4,3.3-1.9c1.3-0.5,2.8-0.7,4.5-0.7
		c1.9,0,3.7,0.3,5.2,0.9c1.6,0.6,2.9,1.5,3.9,2.5L799.2,254.6z"/>
</g>
</svg>
