<?xml version="1.0" encoding="utf-8"?>
<!-- Generator: Adobe Illustrator 17.0.0, SVG Export Plug-In . SVG Version: 6.00 Build 0)  -->
<!DOCTYPE svg PUBLIC "-//W3C//DTD SVG 1.1//EN" "http://www.w3.org/Graphics/SVG/1.1/DTD/svg11.dtd">
<svg version="1.1" id="Default" xmlns="http://www.w3.org/2000/svg" xmlns:xlink="http://www.w3.org/1999/xlink" x="0px" y="0px"
	 width="300px" height="202.018px" viewBox="0 0 300 202.018" enable-background="new 0 0 300 202.018" xml:space="preserve">
<line fill="none" stroke="#7C1F5E" stroke-width="5" stroke-linecap="round" stroke-linejoin="round" x1="166.971" y1="4" x2="220.004" y2="57.033"/>
<circle fill="none" stroke="#7C1F5E" stroke-width="5" stroke-linecap="round" stroke-linejoin="round" cx="149.294" cy="165.732" r="13.825"/>
<polygon fill="none" stroke="#7C1F5E" stroke-width="5" stroke-linecap="round" stroke-linejoin="round" points="129.956,165.732 
	113.939,156.484 113.939,174.98 "/>
<path fill="none" stroke="#7C1F5E" stroke-width="5" stroke-linecap="round" stroke-linejoin="round" d="M113.939,165.732
	c-3.535,0-7.071,0-10.607,0c-3.905,0-7.071-3.166-7.071-7.071c0-13.842,0-27.683,0-41.525c0-3.905,3.166-7.071,7.071-7.071
	c18.386,0,30.25,0,48.636,0"/>
<path fill="none" stroke="#7C1F5E" stroke-width="5" stroke-linecap="round" stroke-linejoin="round" d="M130.264,74.71
	c27.106,0,37.886,0,64.992,0c3.905,0,7.071,3.166,7.071,7.071c0,7.065,0,14.13,0,21.195c0,3.905-3.166,7.071-7.071,7.071
	c-9.428,0.006-5.023,0.012-14.451,0.018"/>
<polyline fill="none" stroke="#7C1F5E" stroke-width="5" stroke-linecap="round" stroke-linejoin="round" points="166.971,4 
	166.971,57.033 220.004,57.033 "/>
<path fill="none" stroke="#7C1F5E" stroke-width="5" stroke-linecap="round" stroke-linejoin="round" d="M166.971,4
	c-27.106,0-54.211,0-81.317,0c-3.905,0-7.071,3.166-7.071,7.071c0,60.104,0,120.207,0,180.311c0,3.905,3.166,7.071,7.071,7.071
	c42.426,0,84.852,0,127.278,0c3.905,0,7.071-3.166,7.071-7.071c0-44.783,0-89.566,0-134.349"/>
<g>
	<path fill="#7C1F5E" d="M113.938,91.035c-9.001,0-16.324-7.323-16.324-16.324c0-9.002,7.323-16.325,16.324-16.325
		c9.002,0,16.325,7.323,16.325,16.325C130.264,83.711,122.94,91.035,113.938,91.035z M113.938,63.385
		c-6.244,0-11.324,5.08-11.324,11.325c0,6.244,5.08,11.324,11.324,11.324c6.245,0,11.325-5.08,11.325-11.324
		C125.264,68.465,120.184,63.385,113.938,63.385z"/>
</g>
<path fill="#7C1F5E" d="M166.972,126.39c-9.002,0-16.325-7.323-16.325-16.325c0-9.001,7.323-16.324,16.325-16.324
	c9.001,0,16.324,7.323,16.324,16.324C183.296,119.067,175.973,126.39,166.972,126.39z M166.972,98.741
	c-6.245,0-11.325,5.08-11.325,11.324c0,6.245,5.08,11.325,11.325,11.325c6.244,0,11.324-5.08,11.324-11.325
	C178.296,103.821,173.216,98.741,166.972,98.741z"/>
</svg>
