<?xml version="1.0" encoding="utf-8"?>
<!-- Generator: Adobe Illustrator 21.0.2, SVG Export Plug-In . SVG Version: 6.00 Build 0)  -->
<svg version="1.1" id="Default" xmlns="http://www.w3.org/2000/svg" xmlns:xlink="http://www.w3.org/1999/xlink" x="0px" y="0px"
	 viewBox="0 0 220.1 225.7" style="enable-background:new 0 0 220.1 225.7;" xml:space="preserve">
<style type="text/css">
	.st0{fill:none;stroke:#7C1F5E;stroke-width:5;stroke-linecap:round;stroke-linejoin:round;}
</style>
<g>
	<circle class="st0" cx="18.5" cy="172" r="16"/>
	<path class="st0" d="M50.5,35.6C19.6,56.1,1.9,92.1,5.2,129.8"/>
	<path class="st0" d="M209.3,114.3c-2.3-36.9-24.6-70.3-58.9-86.2"/>
	<path class="st0" d="M61.6,212.5c33.2,16.5,73.2,13.9,104.3-7.8"/>
	<circle class="st0" cx="107.1" cy="120.8" r="28.9"/>
	<circle class="st0" cx="107.1" cy="18.5" r="16"/>
	<circle class="st0" cx="195.8" cy="172" r="16"/>
	<g>
		<line class="st0" x1="46.4" y1="28.1" x2="54.8" y2="42.7"/>
		<line class="st0" x1="54.8" y1="42.7" x2="63.9" y2="28.1"/>
		<line class="st0" x1="63.9" y1="28.1" x2="46.4" y2="27.3"/>
	</g>
	<line class="st0" x1="200.6" y1="114.5" x2="217.6" y2="114.7"/>
	<line class="st0" x1="217.6" y1="114.7" x2="209.1" y2="129.8"/>
	<line class="st0" x1="209.1" y1="129.8" x2="200.6" y2="114.5"/>
	<line class="st0" x1="57" y1="219.9" x2="65.5" y2="205.1"/>
	<line class="st0" x1="65.5" y1="205.1" x2="48.4" y2="204.7"/>
	<line class="st0" x1="48.4" y1="204.7" x2="57" y2="219.9"/>
</g>
</svg>
