<?xml version="1.0" encoding="utf-8"?>
<!-- Generator: Adobe Illustrator 17.0.0, SVG Export Plug-In . SVG Version: 6.00 Build 0)  -->
<!DOCTYPE svg PUBLIC "-//W3C//DTD SVG 1.1//EN" "http://www.w3.org/Graphics/SVG/1.1/DTD/svg11.dtd">
<svg version="1.1" id="Layer_1" xmlns="http://www.w3.org/2000/svg" xmlns:xlink="http://www.w3.org/1999/xlink" x="0px" y="0px"
	 width="753.08px" height="612px" viewBox="53.647 46.568 753.08 612" enable-background="new 53.647 46.568 753.08 612"
	 xml:space="preserve">
<g id="layer1" transform="translate(-539.17946,-568.85777)">
	<path id="path3611" fill="#313131" d="M829.71,1227.426c284.194,0,439.589-235.442,439.589-439.59
		c0-6.695-0.148-13.353-0.444-19.975c30.184-21.824,56.373-49.012,77.05-80.009c-27.669,12.318-57.482,20.603-88.739,24.339
		c31.885-19.124,56.373-49.382,67.951-85.447c-29.851,17.681-62.92,30.554-98.098,37.508
		c-28.186-30.036-68.321-48.827-112.783-48.827c-85.336,0-154.507,69.208-154.507,154.47c0,12.133,1.369,23.932,3.995,35.214
		c-128.429-6.473-242.285-67.951-318.484-161.424c-13.279,22.823-20.936,49.345-20.936,77.642
		c0,53.599,27.262,100.909,68.764,128.614c-25.338-0.777-49.16-7.731-69.985-19.309c-0.037,0.666-0.037,1.295-0.037,1.96
		c0,74.831,53.266,137.307,123.954,151.474c-12.983,3.551-26.633,5.438-40.726,5.438c-9.95,0-19.642-0.962-29.037-2.774
		c19.679,61.403,76.717,106.05,144.335,107.308c-52.896,41.466-119.478,66.138-191.904,66.138c-12.466,0-24.746-0.703-36.842-2.145
		C661.258,1201.866,742.451,1227.426,829.71,1227.426"/>
</g>
</svg>
